<svg xmlns="http://www.w3.org/2000/svg" viewBox="0 0 64 64">
  <rect width="64" height="64" rx="14" fill="#fffefa"/>
  <path d="M14 16.5 31.7 6.2a3 3 0 0 1 3 0L52 16.5 34.3 26.8a3 3 0 0 1-3 0L14 16.5Z" fill="#f04444"/>
  <path d="M14 29.7 31.7 19.4a3 3 0 0 1 3 0L52 29.7 34.3 40a3 3 0 0 1-3 0L14 29.7Z" fill="#2563eb" opacity=".92"/>
  <path d="M14 42.8 31.7 32.6a3 3 0 0 1 3 0L52 42.8 34.3 53.1a3 3 0 0 1-3 0L14 42.8Z" fill="#151217"/>
  <path d="M23.4 24.4h17.2M23.4 37.6h17.2" stroke="#fffefa" stroke-width="4" stroke-linecap="round"/>
</svg>
